<svg width="30" height="36" viewBox="0 0 30 36" fill="none" xmlns="http://www.w3.org/2000/svg">
<path d="M15.0293 2.93302C19.2916 6.9011 21.5668 11.7944 21.4843 16.8155V18.0141L22.8906 18.6416C24.7076 19.4482 26.0627 20.6993 26.7089 22.1669C26.1415 21.8605 25.5479 21.5803 24.9316 21.3278L21.1816 19.7838L20.5078 22.9001C20.4494 23.1755 20.3712 23.4485 20.2734 23.718H9.76559C9.60934 23.3655 9.48239 23.0129 9.3652 22.6463L8.51559 19.8261L5.05856 21.2362C4.48101 21.473 3.9234 21.7344 3.38864 22.0188C4.0475 20.5682 5.37431 19.3242 7.1484 18.4935L8.48629 17.866V16.7521C8.51043 11.7513 10.8131 6.89523 15.039 2.93302H15.0293ZM15.039 0C14.8199 0.000390307 14.6083 0.0579856 14.4433 0.162162L14.3554 0.218566C8.72415 4.76564 5.59717 10.6454 5.56637 16.745C3.17672 17.8643 1.40786 19.5543 0.568896 21.5197C-0.270071 23.485 -0.125789 25.6007 0.976529 27.4971C2.13776 25.6455 4.07896 24.1058 6.5234 23.0975C6.76856 23.8642 7.09504 24.6161 7.49997 25.3467C7.55132 25.4871 7.66515 25.6114 7.82394 25.7006C7.98274 25.7898 8.17771 25.8388 8.37887 25.8402H21.9336C22.207 25.8402 22.4804 25.6498 22.6172 25.3537C23.0124 24.6592 23.2879 23.9322 23.4375 23.1892C25.8866 24.1932 27.8294 25.7342 28.9843 27.5887C30.1532 25.7017 30.3341 23.5727 29.4936 21.5967C28.6532 19.6206 26.8483 17.9319 24.414 16.8437C24.5106 10.7082 21.4002 4.77179 15.7031 0.218566C15.6183 0.150085 15.5144 0.0952397 15.3983 0.0575871C15.2823 0.0199344 15.1565 0.000314749 15.0293 0L15.039 0Z" fill="#4EA8DE"/>
<path d="M15.0293 16.1598C14.2792 16.1598 13.5459 15.9995 12.9219 15.699C12.2978 15.3986 11.8109 14.9715 11.5225 14.4716C11.2342 13.9716 11.1573 13.4213 11.3015 12.8898C11.4457 12.3584 11.8046 11.8697 12.3329 11.4853C12.8613 11.1009 13.5354 10.838 14.2704 10.7298C15.0054 10.6216 15.7682 10.6729 16.4629 10.8773C17.1575 11.0816 17.7528 11.4298 18.1737 11.8781C18.5946 12.3263 18.8224 12.8545 18.8281 13.396V13.396C18.8398 13.7469 18.7556 14.0961 18.5803 14.4235C18.405 14.751 18.1421 15.0503 17.8065 15.3043C17.471 15.5583 17.0694 15.7622 16.6247 15.9041C16.18 16.0461 15.7009 16.1234 15.2149 16.1316C15.1534 16.1387 15.0908 16.1387 15.0293 16.1316V16.1598Z" fill="#4EA8DE"/>
<path d="M20.3125 27.5958C20.0682 27.5901 19.8247 27.6198 19.5964 27.683C19.3682 27.7462 19.1597 27.8416 18.9832 27.9638C18.8068 28.086 18.6658 28.2323 18.5688 28.3943C18.4717 28.5563 18.4204 28.7307 18.418 28.9072V33.067C18.418 33.4297 18.6176 33.7776 18.9729 34.0342C19.3282 34.2907 19.81 34.4348 20.3125 34.4348C20.815 34.4348 21.2968 34.2907 21.6521 34.0342C22.0074 33.7776 22.207 33.4297 22.207 33.067V28.9636C22.2148 28.7877 22.1741 28.6126 22.0872 28.4482C22.0002 28.2839 21.8688 28.1337 21.7007 28.0064C21.5325 27.879 21.331 27.7772 21.1077 27.7067C20.8845 27.6362 20.644 27.5985 20.4004 27.5958H20.3125Z" fill="#5E60CE"/>
<path d="M9.76562 27.5957C9.51713 27.5863 9.26852 27.6129 9.0346 27.6742C8.80069 27.7355 8.58624 27.8302 8.40401 27.9525C8.22179 28.0749 8.07552 28.2224 7.9739 28.3864C7.87228 28.5504 7.81739 28.7275 7.8125 28.9071V33.067C7.8125 33.4297 8.0121 33.7776 8.3674 34.0341C8.72269 34.2906 9.20457 34.4348 9.70703 34.4348C10.2095 34.4348 10.6914 34.2906 11.0467 34.0341C11.402 33.7776 11.6016 33.4297 11.6016 33.067V28.9635C11.6094 28.7877 11.5686 28.6125 11.4817 28.4482C11.3948 28.2838 11.2634 28.1336 11.0952 28.0063C10.9271 27.879 10.7255 27.7771 10.5022 27.7067C10.279 27.6362 10.0386 27.5985 9.79492 27.5957H9.76562Z" fill="#5E60CE"/>
<path d="M14.8926 27.5958C14.6489 27.592 14.4066 27.623 14.1795 27.6869C13.9524 27.7507 13.7449 27.8463 13.569 27.9681C13.3931 28.0899 13.2521 28.2355 13.1541 28.3966C13.0562 28.5577 13.0031 28.7312 12.998 28.9072V34.6392C12.998 35.002 13.1976 35.3499 13.5529 35.6064C13.9082 35.8629 14.3901 36.007 14.8926 36.007C15.395 36.007 15.8769 35.8629 16.2322 35.6064C16.5875 35.3499 16.7871 35.002 16.7871 34.6392V28.9988C16.7949 28.823 16.7542 28.6478 16.6672 28.4835C16.5803 28.3191 16.4489 28.1689 16.2808 28.0416C16.1126 27.9143 15.911 27.8124 15.6878 27.7419C15.4645 27.6714 15.2241 27.6337 14.9805 27.631L14.8926 27.5958Z" fill="#5E60CE"/>
</svg>
